<?xml version="1.0" encoding="UTF-8"?>
<svg id="Camada_2" data-name="Camada 2" xmlns="http://www.w3.org/2000/svg" viewBox="0 0 1061.4 235.22">
  <defs>
    <style>
      .cls-1 {
        fill: #fff;
        stroke-width: 0px;
      }
    </style>
  </defs>
  <g id="Camada_1-2" data-name="Camada 1">
    <g>
      <path class="cls-1" d="M511.55,2.5h-24.76c-4.82,0-9.09,3.1-10.58,7.68l-74.22,185.17-53.62-125.64c-1.49-4.58-5.76-7.68-10.58-7.68h-24.85c-7.68,0-13.05,7.59-10.49,14.83l65.45,146.42c1.57,4.45,5.77,7.42,10.49,7.42h45.94c4.69,0,8.88-2.95,10.47-7.36l87.22-205.95c2.61-7.25-2.77-14.89-10.47-14.89Z"/>
      <path class="cls-1" d="M578.09,62.03c-67.15,0-80.77,44.11-80.77,85.63s14.6,85.63,82.72,85.63c43.66,0,64.44-16.62,72.2-37.89,2.65-7.27-2.7-14.98-10.45-14.98h-25.81c-4.09,0-7.61,2.45-9.56,6.04-3.81,7.04-12.21,12.44-28.01,12.44-18.27,0-32.53-8.86-35.29-29.53-.29-2.21,1.39-4.21,3.62-4.21h98.07c5.98,0,10.95-4.74,11.13-10.73,1.43-48.5-18.93-92.42-77.86-92.42ZM542.74,131.12c.97-21.41,10.7-34.38,33.09-34.38,23.68,0,33.09,12.97,33.73,34.38h-66.82Z"/>
      <path class="cls-1" d="M680.91,1.37h22.19c6.14,0,11.12,4.98,11.12,11.12v207.08c0,6.14-4.99,11.13-11.13,11.13h-22.19c-6.14,0-11.12-4.98-11.12-11.12V12.5c0-6.14,4.98-11.12,11.12-11.12Z"/>
      <path class="cls-1" d="M952.09,112.31c0-8.43,6.81-16.54,29.19-16.54,19.73,0,28.65,4.96,32.2,16.93,1.39,4.69,5.49,8.04,10.37,8.04h20.62c6.8,0,12.17-6.09,11.02-12.8-5.21-30.24-29.96-45.91-72.92-45.91-47.68,0-73.95,17.84-73.95,52.55,0,58.71,108.99,36.98,108.99,67.47,0,9.73-11.35,16.87-31.79,16.87s-32.26-6.53-35.88-18.66c-1.37-4.59-5.3-7.94-10.09-7.94h-22.77c-6.98,0-12.14,6.35-10.95,13.23,5.53,31.99,32.42,47.75,80.67,47.75,44.76,0,74.61-21.41,74.61-53.2,0-62.93-109.31-38.6-109.31-67.79Z"/>
      <path class="cls-1" d="M881.87,0h-24.16c-5.33,0-9.65,4.32-9.65,9.65v57c-10.34-4.25-22.89-6.67-38.09-6.67-64.35,0-81.55,42.66-81.55,86.31s16.56,86.97,81.23,86.97c21.86,0,38.3-4.93,50.5-13.17.22,5.14,4.42,9.25,9.61,9.25h12.1c5.33,0,9.65-4.32,9.65-9.65V9.65c0-5.33-4.32-9.65-9.65-9.65ZM814.85,194.09c-27.02,0-36.03-18.56-36.03-47.82s8.66-47.46,36.37-47.46,36.71,18.92,36.71,47.46-9.01,47.82-37.06,47.82Z"/>
    </g>
    <g>
      <path class="cls-1" d="M235.73,11.2c-11.87-13.51-32.46-14.01-44.97-1.5l-82.08,82.08c-11.83,11.83-31.01,11.83-42.84,0l-12.49-12.49c-11.6-11.6-30.49-12.98-42.82-2.15-13.51,11.87-14.01,32.46-1.5,44.98l56.3,56.3c6.02,6.02,13.9,9.02,21.79,9.02.05,0,.1,0,.15,0s.1,0,.15,0c7.88,0,15.77-3.01,21.79-9.02l124.39-124.39c11.6-11.6,12.98-30.49,2.15-42.82Z"/>
      <path class="cls-1" d="M232.18,121.32c-12.33-10.83-31.22-9.45-42.82,2.15l-58.39,58.39c-12.14,12.14-12.77,32.64-.48,44.62,5.98,5.83,13.74,8.74,21.5,8.74s15.77-3.01,21.79-9.02l59.9-59.9c12.51-12.51,12.01-33.11-1.5-44.97Z"/>
    </g>
  </g>
</svg>