<?xml version="1.0" encoding="UTF-8"?><svg id="Camada_2" xmlns="http://www.w3.org/2000/svg" viewBox="0 0 352.91 99.96"><defs><style>.cls-1{fill:#29b795;}.cls-1,.cls-2{stroke-width:0px;}.cls-2{fill:#fff;}</style></defs><g id="Camada_1-2"><polygon class="cls-2" points="46.37 56.1 37.76 99.21 51.2 99.21 59.81 56.1 46.37 56.1"/><path class="cls-2" d="m62.6,42.15h-2.39c-6.43,0-11.96,4.54-13.22,10.84h0s13.44,0,13.44,0l2.16-10.84Z"/><path class="cls-2" d="m40.32,42.22h-15.7l.64-3.12c.72-3.23,1.9-5.63,3.55-7.2,1.65-1.58,3.87-2.37,6.67-2.37,2.03,0,3.84.42,5.42,1.26.99.52,2.2.16,2.75-.81l4.4-7.86c-1.51-1.15-3.35-2.01-5.53-2.58-2.19-.58-4.54-.87-7.04-.87-6.31,0-11.42,1.71-15.32,5.11-3.91,3.4-6.51,8.19-7.8,14.35l-.87,4.09H2.14l-2.14,10.75h9.35L.1,99.21c7.82,0,14.54-5.52,16.08-13.18l6.61-33.06h15.38l2.15-10.75Z"/><path class="cls-2" d="m123.58,52.85c-2.22-3.8-5.25-6.7-9.08-8.69-3.86-2.02-8.13-3.03-12.84-3.03-6.88,0-12.73,1.93-17.53,5.75-.12.09-.27,0-.24-.15l5.34-27.11c.03-.12-.06-.21-.15-.21-7.74.09-14.36,5.58-15.87,13.17l-11.45,57.43-.86,4.48c-.36,1.78,1.6,3.11,3.14,2.17l10.38-6.5c.06-.06.15-.03.21.06,1.78,3.14,4.36,5.55,7.77,7.21,3.44,1.69,7.53,2.52,12.25,2.52,6.02,0,11.48-1.45,16.4-4.36,4.89-2.88,8.78-6.91,11.6-12.04,2.85-5.13,4.27-10.86,4.27-17.23,0-5.19-1.13-9.67-3.35-13.47Zm-12.78,25.21c-1.72,3.26-4.06,5.81-7.06,7.65-2.97,1.84-6.35,2.73-10.14,2.73-4.81,0-8.54-1.28-11.18-3.8-2.67-2.55-3.98-6.08-3.98-10.59,0-4.18.86-7.89,2.58-11.15,1.72-3.26,4.06-5.81,7.03-7.62,2.97-1.84,6.38-2.73,10.17-2.73,4.81,0,8.51,1.28,11.18,3.8,2.64,2.55,3.97,6.08,3.97,10.59,0,4.15-.86,7.89-2.58,11.12Z"/><path class="cls-2" d="m190.7,66.32c0-7.83-2.4-13.97-7.21-18.45-4.81-4.48-11.21-6.73-19.25-6.73-6.32,0-11.98,1.42-17.06,4.3-5.04,2.88-8.99,6.88-11.81,11.98-2.85,5.13-4.24,10.89-4.24,17.26,0,5.01,1.13,9.46,3.41,13.29,2.31,3.83,5.58,6.79,9.85,8.87,4.15,2.02,9.02,3.06,14.56,3.11.27,0,.53-.12.71-.33l6.5-7.92c1.19-1.45,0-3.59-1.87-3.35-1.13.12-2.31.21-3.5.21-10.83,0-16.34-4.69-16.55-14.09h45.59c.56-2.64.86-5.37.86-8.16Zm-45.27-.77c1.22-4.21,3.41-7.56,6.61-10,3.17-2.43,7.03-3.65,11.54-3.65s8.13,1.19,10.83,3.59c2.67,2.4,3.97,5.75,3.92,10.06h-32.9Z"/><path class="cls-2" d="m220.94,42.97c-3.62,1.23-6.69,3.3-9.2,6.24l1.51-7.42h-12.79l-11.4,57.42h4.88c4.98,0,9.27-3.51,10.26-8.4l4.01-19.89c2.29-11.54,8.93-17.31,19.89-17.31,1.01,0,2.11.11,3.33.32l2.47-12.8c-5.01,0-9.34.61-12.95,1.83Z"/><path class="cls-1" d="m260.95,41.14h-14.04c-.85,0-1.33.98-.8,1.65l20.15,25.3c.69.86.71,2.08.06,2.96l-19.57,26.54c-.5.67-.02,1.62.82,1.62h13.9c3.23,0,6.27-1.54,8.19-4.14l17.71-24.02c.65-.89.63-2.1-.06-2.96l-18.41-23.11c-1.93-2.42-4.86-3.84-7.96-3.84Z"/><path class="cls-2" d="m314.74,90.55h14.48c.85,0,1.33-.98.8-1.65l-22.01-26.51c-.69-.86-.71-2.08-.06-2.96L352.71,1.62C353.2.95,352.72,0,351.89,0h-13.9c-3.23,0-6.27,1.54-8.19,4.14l-42.79,55.29c-.65.89-.63,2.1.06,2.96l19.72,24.33c1.93,2.42,4.86,3.84,7.96,3.84Z"/></g></svg>